<svg t="1764743251088" class="icon" viewBox="0 0 1024 1024" version="1.1" xmlns="http://www.w3.org/2000/svg" p-id="2198" width="50" height="50"><path d="M170.7 537.5c-4.3 12.2 2.9 26.6 14.5 32.4s26 3.7 36.9-3.3c6.9-4.4 14.3-11 22.1-8.4 3.4 1.1 6 3.9 8.8 6.2 10.9 8.7 26.2 10.1 39.8 6.9 13.6-3.2 25.8-10.5 37.7-17.7 3.5-2.1 7.1-4.3 11.2-4.5 8.5-0.5 14.8 7.5 21.5 12.7 11.5 8.8 27.1 10.6 41.4 8.2s27.6-8.4 41-14c3.3-1.4 6.9-2.7 10.3-1.8 4.8 1.3 7.2 6.5 10.1 10.5 7 9.4 19.3 13.5 31 13.3 11.7-0.2 22.9-4.2 33.9-8.4 4.3-1.7 8.9-3.4 13.5-2.9 4 0.4 7.6 2.5 11.3 4.3 20.1 10 43.9 12.1 65.4 5.8 13-3.8 26.3-11.9 29.9-25.1 17.7 15.4 43.6 20.8 66 13.8 4-1.3 8.2-2.9 12.4-2 3.2 0.7 5.8 2.7 8.4 4.6 18.2 12.7 45 16.6 61.6 1.9 2.1-1.9 4.4-4.2 7.2-4.1 2.6 0.1 4.7 2.2 6.6 4 7.3 6.7 18 9.9 27.5 7.1 9.5-2.9 16.9-12.5 16-22.3-1.4-15.3-18.9-22.8-33.8-26.6-93.4-24.2-191.1-27.5-287.5-23.7s-192.5 14.6-288.9 18c-27.2 1-55.9 1.8-78.9 16.3M170.7 759.7c-4.3-12.2 2.9-26.6 14.5-32.4 11.5-5.8 26-3.7 36.9 3.3 6.9 4.4 14.3 11 22.1 8.4 3.4-1.1 6-3.9 8.8-6.2 10.9-8.7 26.2-10.1 39.8-6.9 13.6 3.2 25.8 10.5 37.7 17.7 3.5 2.1 7.1 4.3 11.2 4.5 8.5 0.5 14.8-7.5 21.5-12.7 11.5-8.8 27.1-10.6 41.4-8.2s27.6 8.4 41 14c3.3 1.4 6.9 2.7 10.3 1.8 4.8-1.3 7.2-6.5 10.1-10.5 7-9.4 19.3-13.5 31-13.3 11.7 0.2 22.9 4.2 33.9 8.4 4.3 1.7 8.9 3.4 13.5 2.9 4-0.4 7.6-2.5 11.3-4.3 20.1-10 43.9-12.1 65.4-5.8 13 3.8 26.3 11.9 29.9 25.1 17.7-15.4 43.6-20.8 66-13.8 4 1.3 8.2 2.9 12.4 2 3.2-0.7 5.8-2.7 8.4-4.6 18.2-12.7 45-16.6 61.6-1.9 2.1 1.9 4.4 4.2 7.2 4.1 2.6-0.1 4.7-2.2 6.6-4 7.3-6.7 18-9.9 27.5-7.1 9.5 2.9 16.9 12.5 16 22.3-1.4 15.3-18.9 22.8-33.8 26.6-93.4 24.2-191.1 27.5-287.5 23.7s-192.5-14.6-288.9-18c-27.2-1-55.9-1.8-78.9-16.3" fill="#439B4F" p-id="2199"></path><path d="M270.2 904.4c-66.3 0-120.3-54-120.3-120.3 0-11 9-20 20-20h685.9c11 0 20 9 20 20 0 66.3-54 120.3-120.3 120.3H270.2z" fill="#EF8337" p-id="2200"></path><path d="M855.8 784.1c0 55.4-44.9 100.3-100.3 100.3H270.2c-55.4 0-100.3-44.9-100.3-100.3h685.9m0-40H169.9c-22.1 0-40 17.9-40 40 0 18.9 3.7 37.3 11 54.6 7.1 16.7 17.2 31.7 30.1 44.6 12.9 12.9 27.9 23 44.6 30.1 17.3 7.3 35.7 11 54.6 11h485.3c18.9 0 37.3-3.7 54.6-11 16.7-7.1 31.7-17.2 44.6-30.1 12.9-12.9 23-27.9 30.1-44.6 7.3-17.3 11-35.7 11-54.6 0-22.1-17.9-40-40-40z m0 80z" fill="#200000" p-id="2201"></path><path d="M199 697.8c-27.1 0-49.1-22-49.1-49.1s22-49.1 49.1-49.1h627.7c27.1 0 49.1 22 49.1 49.1s-22 49.1-49.1 49.1H199z" fill="#FC4D49" p-id="2202"></path><path d="M826.7 619.6c16.1 0 29.1 13 29.1 29.1s-13 29.1-29.1 29.1H199c-16.1 0-29.1-13-29.1-29.1s13-29.1 29.1-29.1h627.7m0-40H199c-38.1 0-69.1 31-69.1 69.1s31 69.1 69.1 69.1h627.7c38.1 0 69.1-31 69.1-69.1s-31-69.1-69.1-69.1z" fill="#200000" p-id="2203"></path><path d="M168.7 531.5c-10.4 0-19.1-8-19.9-18.4-0.8-9.8-1.2-19.6-1.2-29.1 0-49.2 9.6-96.9 28.6-141.9 18.4-43.4 44.6-82.4 78.1-115.8 33.5-33.5 72.4-59.7 115.8-78.1 44.9-19 92.7-28.6 141.9-28.6s96.9 9.6 141.9 28.6c43.4 18.4 82.4 44.6 115.8 78.1 33.5 33.5 59.7 72.4 78.1 115.8 19 44.9 28.6 92.7 28.6 141.9 0 9.6-0.4 19.3-1.2 29.1-0.8 10.4-9.5 18.4-19.9 18.4H168.7z" fill="#EF8337" p-id="2204"></path><path d="M512 139.6c190.2 0 344.4 154.2 344.4 344.4 0 9.3-0.4 18.4-1.1 27.5H168.7c-0.7-9.1-1.1-18.3-1.1-27.5 0-190.2 154.2-344.4 344.4-344.4m0-40c-51.9 0-102.2 10.2-149.7 30.2-45.8 19.4-86.9 47.1-122.2 82.4-35.3 35.3-63 76.4-82.4 122.2-20.1 47.4-30.2 97.8-30.2 149.7 0 10.1 0.4 20.4 1.2 30.7 1.6 20.8 19 36.8 39.9 36.8h686.7c20.9 0 38.2-16 39.9-36.8 0.8-10.3 1.2-20.6 1.2-30.7 0-51.9-10.2-102.2-30.2-149.7-19.4-45.8-47.1-86.9-82.4-122.2-35.3-35.3-76.4-63-122.2-82.4-47.4-20-97.7-30.2-149.6-30.2z" fill="#200000" p-id="2205"></path><path d="M281.3 454.9l-6.6 9-7.9-6.2 0.7-8.7 10.9 0.6zM431.5 472l-8.7 7.1-6.1-7.9 2.8-8.3 10.4 3.3zM283.6 325.3l-8.9-6.7 6.1-7.9 8.7 0.7-0.6 10.9zM406.2 205.9l8.7 7.1-6.5 7.6-8.7-1.1 1.1-10.9zM566.9 210.7l3.7 10.5-9.4 3.1-6.9-5.4 6.5-8.7zM625.8 361.5l-1.1-11.1 10-0.7 5.3 6.9-8.5 6.8zM744.3 323.7l-11.1-0.9 1.1-9.9 7.8-4 5.2 9.5zM689.4 450l8-7.8 6.8 7.3-2 8.5-10.7-2.3zM376.8 343.1l11.1 1.2-1.3 9.9-7.9 3.8-5-9.6zM545.5 460.9l8.7 7-6.5 7.6-8.7-1.1 1.1-10.8zM281.3 830.6l-6.6 8.9-7.9-6.1 0.7-8.7 10.9 0.6zM431.5 847.7l-8.7 7-6.1-7.9 2.8-8.2 10.4 3.2zM689.4 825.6l8-7.8 6.8 7.3-2 8.5-10.7-2.3zM545.5 836.5l8.7 7-6.5 7.6-8.7-1 1.1-10.9z" fill="#FFFFFF" p-id="2206"></path></svg>